<svg width="34" height="19" viewBox="0 0 34 19" fill="none" xmlns="http://www.w3.org/2000/svg">
<path d="M0.24 7.2C0.736 6.304 1.44 5.856 2.352 5.856C2.944 5.856 3.424 6.176 3.792 6.816C4.16 7.44 4.416 8.216 4.56 9.144C4.72 10.056 4.848 10.984 4.944 11.928C5.184 14.28 5.48 15.568 5.832 15.792C6.456 15.632 7.008 14.68 7.488 12.936C7.968 11.176 8.208 9.856 8.208 8.976C8.208 8.08 8.16 7.368 8.064 6.84C8.624 6.728 9.104 6.672 9.504 6.672C10.88 6.672 11.568 7.328 11.568 8.64C11.568 10.688 11.672 12.36 11.88 13.656C12.104 14.936 12.368 15.696 12.672 15.936C13.12 15.904 13.504 15.552 13.824 14.88C14.144 14.208 14.376 13.392 14.52 12.432C14.792 10.624 14.928 9.24 14.928 8.28C14.928 7.304 14.88 6.552 14.784 6.024C15.344 5.912 15.824 5.856 16.224 5.856C17.6 5.856 18.288 6.512 18.288 7.824C18.288 8.656 18.12 9.664 17.784 10.848C17.448 12.016 17.008 13.16 16.464 14.28C15.92 15.384 15.256 16.328 14.472 17.112C13.704 17.896 12.936 18.288 12.168 18.288C11.288 18.288 10.624 17.632 10.176 16.32C9.824 15.328 9.536 14.04 9.312 12.456C9.168 12.984 9.064 13.368 9 13.608C8.936 13.848 8.824 14.208 8.664 14.688C8.504 15.168 8.36 15.536 8.232 15.792C8.104 16.048 7.928 16.352 7.704 16.704C7.496 17.056 7.28 17.312 7.056 17.472C6.496 17.92 5.872 18.144 5.184 18.144C4.512 18.144 3.952 17.84 3.504 17.232C3.072 16.624 2.768 15.848 2.592 14.904C2.432 13.96 2.288 12.992 2.16 12C1.856 9.472 1.216 7.872 0.24 7.2Z" fill="#1C1C1C"/>
<path d="M23.9151 1.152C24.5871 0.927999 25.1951 0.816 25.7391 0.816C26.5711 0.816 27.2191 1.112 27.6831 1.704C28.1471 2.28 28.5071 3.104 28.7631 4.176C28.8431 4.496 29.0031 5.2 29.2431 6.288C29.4991 7.376 29.7071 8.256 29.8671 8.928C30.3631 11.024 30.8111 12.648 31.2111 13.8C31.6271 14.952 32.2831 15.872 33.1791 16.56C32.9871 17.04 32.6671 17.424 32.2191 17.712C31.7871 18 31.3151 18.144 30.8031 18.144C29.6351 18.144 28.7791 17.264 28.2351 15.504C27.9791 14.688 27.7471 13.888 27.5391 13.104C26.9791 13.296 26.2831 13.392 25.4511 13.392C24.6351 13.392 23.6271 13.304 22.4271 13.128C21.9311 15.064 21.6831 16.52 21.6831 17.496C21.6831 17.704 21.6911 17.856 21.7071 17.952C21.4991 17.984 21.1471 18 20.6511 18C20.1551 18 19.7151 17.848 19.3311 17.544C18.9631 17.224 18.7791 16.776 18.7791 16.2C18.7791 15.4 19.5471 13.056 21.0831 9.168C22.6191 5.28 23.5631 2.608 23.9151 1.152ZM22.9791 11.112C23.6191 11.192 24.2671 11.232 24.9231 11.232C25.5951 11.232 26.3071 11.16 27.0591 11.016C26.9151 10.36 26.4271 7.848 25.5951 3.48C24.6031 6.056 23.7311 8.6 22.9791 11.112Z" fill="#2F80ED"/>
</svg>
